PathFileType	4	(X/Y/Z)	Run_200 02
DataRate	CameraRate	NumFrames	NumMarkers	Units	OrigDataRate	OrigDataStartFrame	OrigNumFrames
100	100	5	42	mm	100	152	128
Frame#	Time	LPSI			RPSI			RTH1			RTH2			RTH3			LTH1			LTH2			LTH3			RTB1			RTB2			RTB3			LTB1			LTB2			LTB3			RCAL			RTOE			RMT5			LCAL			LTOE			LMT5			LACR			RACR			CLAV			C7			RUA1			RUA2			RUA3			RLEL			RMEL			LUA1			LUA2			LUA3			LLEL			LMEL			RFAsuperior			RFAradius			RFAulna			LFAsuperior			LFAradius			LFAulna			RASI			LASI			
		X1	Y1	Z1	X2	Y2	Z2	X3	Y3	Z3	X4	Y4	Z4	X5	Y5	Z5	X6	Y6	Z6	X7	Y7	Z7	X8	Y8	Z8	X9	Y9	Z9	X10	Y10	Z10	X11	Y11	Z11	X12	Y12	Z12	X13	Y13	Z13	X14	Y14	Z14	X15	Y15	Z15	X16	Y16	Z16	X17	Y17	Z17	X18	Y18	Z18	X19	Y19	Z19	X20	Y20	Z20	X21	Y21	Z21	X22	Y22	Z22	X23	Y23	Z23	X24	Y24	Z24	X25	Y25	Z25	X26	Y26	Z26	X27	Y27	Z27	X28	Y28	Z28	X29	Y29	Z29	X30	Y30	Z30	X31	Y31	Z31	X32	Y32	Z32	X33	Y33	Z33	X34	Y34	Z34	X35	Y35	Z35	X36	Y36	Z36	X37	Y37	Z37	X38	Y38	Z38	X39	Y39	Z39	X40	Y40	Z40	X41	Y41	Z41	X42	Y42	Z42	

135	2.15	621.05406	1122.770239	-531.156533	614.099056	1121.344708	-447.248362	751.212662	923.639774	-292.482112	844.577227	808.300476	-301.982726	800.087274	690.103971	-307.768173	717.3678	926.058432	-665.50364	755.661816	799.137782	-644.198612	638.873544	685.389238	-639.971163	867.122158	444.253927	-349.131597	794.429132	356.154116	-307.058855	814.571824	253.210761	-363.639646	613.0767070000001	448.993162	-582.704339	524.205832	407.520019	-646.0900799999999	509.043732	270.85707	-579.607411	672.406891	138.247521	-405.551696	900.13558	103.23879	-365.148232	852.080464	69.07517199999999	-288.797768	332.167802	208.114336	-551.329283	508.936561	68.142888	-569.503477	458.654544	56.655665	-644.895853	825.1727969999999	1565.108572	-633.658807	725.926409	1572.14012	-317.305826	840.421644	1524.907124	-433.300747	721.97227	1600.962572	-505.219197	626.109999	1501.867929	-248.664305	546.089309	1450.343929	-290.278231	549.044305	1417.411655	-215.499743	499.648469	1334.299581	-187.077237	474.307087	1318.889435	-266.241503	822.71514	1470.436679	-741.252839	763.057248	1390.466873	-766.2357919999999	831.2077839999999	1364.344859	-800.874281	852.849873	1282.482105	-835.014311	788.752657	1239.251669	-813.705506	551.894209	1270.32485	-187.117237	737.313946	1206.232853	-250.63381	691.9648979999999	1150.914291	-239.554892	918.694667	1261.370677	-730.578136	941.331382	1310.387806	-583.815847	947.286301	1243.945504	-583.26298	786.847345	1053.170827	-351.770691	799.866821	1055.474151	-606.332936	
136	2.16	623.517923	1127.114321	-530.768469	615.9279309999999	1125.764429	-446.777394	750.110376	926.940618	-290.908042	840.606926	809.344253	-300.367329	793.068384	691.3591740000001	-307.583352	717.920807	930.144092	-664.39868	753.66186	802.26769	-643.682896	634.702271	690.7625829999999	-639.297207	869.817018	446.57595	-347.065103	803.839822	353.878809	-304.11022	831.834043	251.893497	-359.489585	605.497999	454.5755	-582.816435	516.569125	414.24009	-646.680773	500.515767	277.083625	-581.156681	698.455969	127.095842	-400.615073	928.000094	107.224157	-361.939878	883.368455	68.457942	-286.157452	325.126107	220.627822	-552.998427	492.572414	69.048852	-569.587033	441.525185	59.828363	-644.679278	825.9215840000001	1570.447404	-629.953171	725.455899	1576.199446	-315.562818	840.267437	1529.89879	-431.242619	722.325226	1605.246503	-502.896401	625.239705	1507.636061	-247.629277	545.383833	1456.057236	-290.084785	546.9609400000001	1424.012556	-214.507394	496.705021	1341.170605	-186.117587	472.211523	1325.099884	-265.802009	824.7232289999999	1476.831278	-738.214061	765.208277	1397.113982	-764.277045	833.265721	1370.202735	-797.906729	855.184161	1288.422789	-832.538333	791.175523	1245.054443	-811.312783	548.746122	1277.056645	-185.380434	735.128135	1212.669824	-246.388309	689.043815	1156.864902	-235.840868	919.873308	1269.503428	-727.142912	940.534852	1320.636163	-580.819222	947.593902	1254.008987	-579.746754	788.1066949999999	1057.178426	-350.675556	801.588336	1058.6434	-605.038834	
137	2.17	625.999884	1130.677703	-530.312862	617.768537	1129.305445	-446.262955	748.919136	929.147816	-289.160974	836.2763179999999	809.174096	-298.656794	785.7891530000001	691.575727	-307.600843	718.93598	933.613294	-663.237508	752.541382	804.821734	-643.065441	632.0306440000001	695.101005	-638.6160640000001	872.031706	448.592476	-345.423929	812.550293	352.253993	-301.358719	847.610648	251.553429	-355.393856	599.384966	459.028612	-582.866849	510.364259	420.153825	-647.288679	492.41983	282.838153	-582.515418	722.802805	118.639993	-395.978007	953.034339	112.076765	-358.533544	911.616223	68.85102999999999	-283.602743	318.335314	232.991396	-554.917927	476.815656	70.48734	-570.018651	424.889302	63.864546	-644.696475	826.2986100000001	1574.902423	-626.438727	725.194079	1579.200946	-313.617444	840.082548	1533.970013	-429.351252	722.513598	1608.58158	-500.329867	624.198121	1512.279673	-246.286278	544.9038420000001	1460.419434	-289.743626	545.082818	1429.356746	-213.488853	494.501303	1346.421524	-185.353134	470.554913	1329.78807	-265.444816	826.052861	1482.225684	-735.0835	766.754803	1402.610896	-762.056748	834.623918	1375.295939	-795.203533	856.799205	1293.509819	-830.158738	792.943213	1249.980177	-809.130027	546.165057	1282.400683	-183.753117	733.400737	1217.927184	-242.307968	687.0529759999999	1161.823423	-232.213495	920.421049	1276.390191	-724.016967	939.317421	1329.159287	-578.015037	947.60835	1262.357803	-576.8606569999999	789.457079	1060.297984	-349.622728	803.400941	1060.92417	-603.786715	
138	2.18	628.337025	1133.346105	-529.717404	619.49655	1131.893488	-445.64378	747.900471	930.156033	-287.756746	831.908539	807.9471559999999	-297.121445	779.122941	690.944088	-307.685373	720.531759	936.271481	-661.942599	752.601896	806.6651900000001	-642.062196	631.156019	698.146448	-638.0093869999999	873.912777	450.392281	-344.343582	820.43148	351.340335	-298.871961	861.500529	252.079324	-351.567386	594.825349	462.166407	-582.910763	505.511939	425.179429	-647.85535	484.787994	287.976434	-583.699696	744.41927	113.036833	-391.853336	974.594684	116.763932	-354.800071	935.612075	70.098715	-280.594603	311.511112	244.843814	-556.956488	461.580466	72.57641	-570.743971	408.828	68.691535	-644.95598	826.351274	1578.407672	-623.236463	725.140318	1580.979428	-311.476901	839.843034	1536.8439	-427.266506	722.522319	1610.828257	-497.528519	622.9294619999999	1515.564869	-244.641789	544.61016	1463.405818	-289.187818	543.416742	1433.139269	-212.589344	492.855815	1349.676121	-184.906101	469.408005	1332.802734	-265.124518	826.788621	1486.440741	-731.964881	767.603911	1406.789411	-759.5012	835.277701	1379.638091	-792.905549	857.694093	1297.616134	-827.934424	793.957852	1253.96362	-807.056405	544.148879	1286.167953	-182.216432	732.296443	1221.780417	-238.198386	685.980513	1165.625832	-228.734836	920.4422060000001	1281.831491	-721.248651	937.777908	1335.737443	-575.395617	947.192714	1268.908226	-573.937367	790.69713	1062.520054	-348.537134	805.105196	1062.306214	-602.500455	
139	2.19	630.3790320000001	1135.033978	-528.927266	621.015143	1133.472876	-444.857226	747.002112	929.9653029999999	-286.683338	827.941231	805.8559320000001	-295.739635	773.9463919999999	689.651898	-307.612058	722.7194040000001	937.895372	-660.479646	753.979979	807.638545	-640.453286	632.186585	699.677776	-637.522394	875.574001	451.963527	-343.770402	827.2760050000001	350.999718	-296.746682	873.179082	253.140375	-348.296156	591.866215	463.883028	-582.972157	502.055078	429.190299	-648.347534	477.743617	292.394399	-584.707441	762.336499	109.968473	-388.223778	992.220332	120.084974	-351.026028	954.594733	71.94905900000001	-276.877911	304.727955	256.067866	-558.896133	446.687112	75.351339	-571.6258779999999	393.282805	74.071658	-645.366051	826.11524	1580.836469	-620.239886	725.2476789999999	1581.494352	-309.116691	839.616651	1538.358135	-424.779827	722.359372	1611.913044	-494.551987	621.680943	1517.232115	-242.793478	544.511895	1464.851379	-288.449259	542.057843	1435.097538	-211.818567	491.476071	1350.891543	-184.623298	468.851308	1334.049273	-264.739691	826.963115	1489.369695	-728.97256	767.677868	1409.587594	-756.65215	835.202463	1383.104802	-790.9294599999999	857.834128	1300.604694	-825.883653	794.140766	1256.933071	-805.014545	542.647065	1288.184569	-180.735636	731.941372	1224.155086	-234.152921	685.668976	1167.97982	-225.500664	919.977859	1285.671846	-718.832488	936.003151	1340.208288	-572.936553	946.4232490000001	1273.433854	-571.133876	791.7198550000001	1063.779282	-347.29196	806.593856	1062.72538	-601.054172	
